<svg width="20" height="20" viewBox="0 0 20 20" fill="none" xmlns="http://www.w3.org/2000/svg">
<path fill-rule="evenodd" clip-rule="evenodd" d="M10 20C15.5228 20 20 15.5228 20 10C20 4.47715 15.5228 0 10 0C4.47715 0 0 4.47715 0 10C0 15.5228 4.47715 20 10 20Z" fill="#2E5BFF"/>
<path fill-rule="evenodd" clip-rule="evenodd" d="M14.8466 7.69213L8.86422 13.7093C8.47892 14.0969 7.85516 14.0969 7.47085 13.7093L4.97186 11.1968C4.58755 10.8093 4.58755 10.1819 4.97186 9.79434C5.35715 9.40779 5.98091 9.40779 6.36522 9.79434L8.16754 11.6071L13.4533 6.29065C13.8376 5.90312 14.4613 5.90312 14.8466 6.29065C15.2319 6.6772 15.2319 7.30459 14.8466 7.69213Z" fill="white"/>
</svg>
