<svg width="295" height="31" viewBox="0 0 295 31" fill="none" xmlns="http://www.w3.org/2000/svg">
<rect x="247" y="4" width="48" height="22" rx="6" fill="#E94A47"/>
<path d="M259.956 19.072C261.456 19.072 262.584 18.376 263.316 17.464L262.248 16.552C261.708 17.224 260.916 17.716 259.956 17.716C258.336 17.716 257.172 16.516 257.172 14.764C257.172 12.964 258.312 11.752 259.932 11.752C260.832 11.752 261.588 12.136 262.224 12.916L263.292 12.016C262.404 10.924 261.18 10.384 259.932 10.384C257.196 10.384 255.66 12.34 255.66 14.764C255.66 17.56 257.64 19.072 259.956 19.072ZM264.786 19H270.186V17.704H266.238V10.48H264.786V19ZM274.695 19.096C276.819 19.096 278.103 17.704 278.103 15.496V10.48H276.651V15.388C276.651 16.852 275.835 17.728 274.695 17.728C273.471 17.728 272.751 16.744 272.751 15.388V10.48H271.311V15.496C271.311 17.788 272.679 19.096 274.695 19.096ZM280.056 19H283.428C285.312 19 286.224 18.016 286.224 16.66C286.224 15.484 285.528 14.74 284.532 14.5V14.488C285.408 14.14 285.792 13.348 285.792 12.556C285.792 11.164 284.772 10.48 283.02 10.48H280.056V19ZM281.508 14.008V11.776L282.864 11.764C283.86 11.764 284.316 12.208 284.316 12.88C284.316 13.684 283.728 14.008 282.912 14.008H281.508ZM281.508 17.704V15.256H283.02C284.148 15.256 284.712 15.748 284.712 16.504C284.712 17.308 284.148 17.704 283.248 17.704H281.508Z" fill="white"/>
<path d="M55.6616 -3.8147e-06L58.6537 1.23529L82.7557 28.5765C83.5518 29.4823 82.9204 30.9098 81.7126 30.9098H28.4577L55.6616 -3.8147e-06Z" fill="#2044A0"/>
<path d="M26.893 30.8824H37.242L58.7636 6.45098C60.9871 3.95294 59.2028 -1.90735e-06 55.8538 -1.90735e-06C54.7283 -1.90735e-06 53.6851 0.466665 52.944 1.31765L26.893 30.8824Z" fill="#C7DAFF"/>
<path d="M27.9361 -1.90735e-06L30.9283 1.23529L57.0616 30.8824H0.732193L27.9361 -1.90735e-06Z" fill="#3366FF"/>
<path d="M0.704741 30.8824H9.51651L31.0381 6.45098C33.2342 3.95294 31.4498 0 28.1008 0C26.9753 0 25.9322 0.466667 25.191 1.31765L0.183174 29.7294C-0.228591 30.1686 0.100819 30.8824 0.704741 30.8824Z" fill="#C7DAFF"/>
<path d="M116.532 12.7412L111.811 22.5412H108.736L103.96 12.7137L102.56 24.7373H98.5518L100.94 5.35687H104.262L110.246 18.0667L116.175 5.35687H119.552L121.913 24.7373H117.932L116.532 12.7412Z" fill="#28293D"/>
<path d="M138.026 24.7373H125.618V5.35687H137.779V8.81569H129.544V13.4275H136.764V16.9412H129.544V21.2784H138.054V24.7373H138.026Z" fill="#28293D"/>
<path d="M149.226 8.81569V24.7373H145.328V8.81569H139.975V5.35687H154.579V8.81569H149.226Z" fill="#28293D"/>
<path d="M156.171 19.1098H160.069C160.097 20.4824 161.442 21.6353 163.254 21.6353C165.038 21.6353 166.164 20.6745 166.164 19.302C166.164 18.2588 165.34 17.4628 163.72 16.9686L161.36 16.2824C157.105 15.1569 156.364 12.5765 156.364 10.8471C156.364 7.36079 159.356 5.00001 163.062 5.00001C166.74 5.00001 169.54 7.22354 169.54 10.902H165.642C165.642 9.52942 164.681 8.45883 163.007 8.45883C161.469 8.45883 160.344 9.44707 160.344 10.7647C160.344 11.2588 160.481 12.2196 162.513 12.8235L164.681 13.4549C167.618 14.2784 170.171 15.7882 170.171 19.1098C170.171 22.9255 166.877 25.0667 163.226 25.0667C159.026 25.0667 156.171 22.5137 156.171 19.1098Z" fill="#28293D"/>
<path d="M186.038 24.7373H173.63V5.35687H185.791V8.81569H177.556V13.4275H184.775V16.9412H177.556V21.2784H186.066V24.7373H186.038Z" fill="#28293D"/>
<path d="M204.266 24.7373H200.752L193.724 12.5765V24.7373H189.826V5.35687H193.45L200.367 17.3804V5.35687H204.266V24.7373Z" fill="#28293D"/>
<path d="M212.199 20.098L210.662 24.7373H206.489L213.709 5.35687H217.936L225.128 24.7373H221.011L219.446 20.098H212.199ZM215.795 9.41961L213.352 16.6941H218.266L215.795 9.41961Z" fill="#28293D"/>
<path d="M233.199 8.81569V24.7373H229.301V8.81569H223.948V5.35687H238.552V8.81569H233.199Z" fill="#28293D"/>
</svg>
