<svg width="173" height="24" viewBox="0 0 173 24" fill="none" xmlns="http://www.w3.org/2000/svg">
<path d="M40.3051 1.44823L42.4718 2.34273L59.9243 22.1408C60.5008 22.7968 60.0436 23.8304 59.169 23.8304H20.6064L40.3051 1.44823Z" fill="#2044A0"/>
<path d="M19.4736 23.8105H26.9675L42.5515 6.11946C44.1616 4.3106 42.8696 1.44823 40.4445 1.44823C39.6295 1.44823 38.8742 1.78615 38.3375 2.40235L19.4736 23.8105Z" fill="#C7DAFF"/>
<path d="M20.229 1.44823L22.3956 2.34272L41.3191 23.8105H0.530273L20.229 1.44823Z" fill="#3366FF"/>
<path d="M0.510312 23.8105H6.89102L22.4751 6.11946C24.0653 4.31059 22.7732 1.44822 20.3482 1.44822C19.5332 1.44822 18.7778 1.78614 18.2411 2.40234L0.132638 22.9757C-0.165526 23.2937 0.0730042 23.8105 0.510312 23.8105Z" fill="#C7DAFF"/>
<path d="M84.3821 5.60549L80.9632 12.7018H78.7369L75.2782 5.58561L74.2644 14.292H71.3623L73.0917 0.258411H75.4968L79.8302 9.46174L84.1237 0.258411H86.5687L88.2781 14.292H85.3959L84.3821 5.60549Z" fill="#28293D"/>
<path d="M74.1341 17.9088H71.6924V23.8957H72.9002V21.8016H74.1341C75.4896 21.8016 76.0892 20.8458 76.0892 19.8639C76.0892 18.8907 75.4896 17.9088 74.1341 17.9088ZM74.0733 20.7415H72.9002V18.9776H74.0906C74.6555 18.9776 74.8727 19.4294 74.8727 19.8639C74.8727 20.2896 74.6555 20.7415 74.0733 20.7415Z" fill="#00AE69"/>
<path d="M78.68 21.7495L80.1051 23.8957H81.5215L79.9661 21.6886C80.974 21.4801 81.4172 20.7154 81.4172 19.8639C81.4172 18.8907 80.8263 17.9088 79.4534 17.9088H77.0638V23.8957H78.2716V21.7495H78.68ZM78.2716 20.7762V18.9776H79.3317C79.8966 18.9776 80.2007 19.4033 80.2007 19.8899C80.2007 20.3678 79.9226 20.7762 79.2362 20.7762H78.2716Z" fill="#00AE69"/>
<path d="M85.2389 24C86.9333 24 88.2888 22.6097 88.2888 20.9066C88.2888 19.2035 86.9333 17.8045 85.2389 17.8045C83.5358 17.8045 82.1976 19.2035 82.1976 20.9066C82.1976 22.6097 83.5358 24 85.2389 24ZM85.2389 22.8617C84.1614 22.8617 83.4054 21.9841 83.4054 20.9066C83.4054 19.8291 84.1614 18.9428 85.2389 18.9428C86.3164 18.9428 87.0723 19.8291 87.0723 20.9066C87.0723 21.9841 86.3164 22.8617 85.2389 22.8617Z" fill="#00AE69"/>
<path d="M99.9466 14.292H90.9619V0.258411H99.7677V2.76299H93.8044V6.10243H99.0322V8.64676H93.8044V11.7874H99.9665V14.292H99.9466Z" fill="#28293D"/>
<path d="M108.056 2.76299V14.292H105.234V2.76299H101.357V0.258411H111.932V2.76299H108.056Z" fill="#28293D"/>
<path d="M113.085 10.2171H115.908C115.927 11.211 116.901 12.0458 118.213 12.0458C119.505 12.0458 120.32 11.3501 120.32 10.3562C120.32 9.60088 119.724 9.02443 118.551 8.66663L116.842 8.16969C113.761 7.35471 113.224 5.48622 113.224 4.23393C113.224 1.70947 115.391 0 118.074 0C120.738 0 122.765 1.61009 122.765 4.27368H119.943C119.943 3.2798 119.247 2.50458 118.034 2.50458C116.921 2.50458 116.106 3.22017 116.106 4.1743C116.106 4.53209 116.206 5.22781 117.677 5.66512L119.247 6.1223C121.374 6.71863 123.223 7.8119 123.223 10.2171C123.223 12.9801 120.837 14.5305 118.194 14.5305C115.152 14.5305 113.085 12.6819 113.085 10.2171Z" fill="#28293D"/>
<path d="M134.712 14.292H125.728V0.258411H134.533V2.76299H128.57V6.10243H133.798V8.64676H128.57V11.7874H134.732V14.292H134.712Z" fill="#28293D"/>
<path d="M147.911 14.292H145.366L140.278 5.48622V14.292H137.455V0.258411H140.079L145.088 8.9648V0.258411H147.911V14.292Z" fill="#28293D"/>
<path d="M153.656 10.9327L152.543 14.292H149.521L154.749 0.258411H157.81L163.018 14.292H160.037L158.904 10.9327H153.656ZM156.26 3.2003L154.491 8.46786H158.049L156.26 3.2003Z" fill="#28293D"/>
<path d="M168.862 2.76299V14.292H166.039V2.76299H162.163V0.258411H172.738V2.76299H168.862Z" fill="#28293D"/>
</svg>
